<?xml version="1.0" standalone="no"?>
<!DOCTYPE svg PUBLIC "-//W3C//DTD SVG 20010904//EN"
 "http://www.w3.org/TR/2001/REC-SVG-20010904/DTD/svg10.dtd">
<svg version="1.0" xmlns="http://www.w3.org/2000/svg"
 width="250.000000pt" height="250.000000pt" viewBox="0 0 250.000000 250.000000"
 preserveAspectRatio="xMidYMid meet">

<g transform="translate(0.000000,250.000000) scale(0.100000,-0.100000)"
fill="#000000" stroke="none">
<path d="M254 2179 c-60 -23 -119 -78 -135 -126 -16 -49 -7 -138 18 -171 31
-43 97 -88 160 -112 173 -63 196 -74 240 -115 48 -43 48 -43 48 -108 0 -51 -4
-70 -20 -87 -36 -41 -93 -60 -180 -60 -123 0 -196 42 -221 128 -10 33 -15 37
-47 40 -34 3 -37 1 -37 -24 0 -60 74 -144 154 -174 101 -38 245 -31 338 16
125 63 157 225 66 329 -46 52 -90 77 -233 130 -160 60 -207 99 -207 171 0 98
133 160 265 123 46 -12 103 -61 111 -94 6 -22 12 -25 47 -25 37 0 40 2 33 23
-19 60 -86 121 -160 143 -67 20 -178 17 -240 -7z"/>
<path d="M980 1775 l0 -415 270 0 270 0 0 30 0 30 -215 0 -215 0 0 175 0 175
183 2 182 3 0 25 0 25 -182 3 -183 2 0 145 0 145 213 2 212 3 3 33 3 32 -270
0 -271 0 0 -415z"/>
<path d="M1760 1776 l0 -416 55 0 55 0 0 183 0 183 56 -4 c31 -2 68 -10 81
-19 13 -9 69 -82 124 -163 121 -180 158 -208 257 -194 35 5 42 10 42 29 0 18
-7 24 -37 28 -21 4 -48 14 -61 23 -12 8 -64 77 -114 152 -50 76 -100 144 -111
153 -20 16 -19 17 34 33 190 55 210 310 32 397 -44 21 -65 23 -230 27 l-183 4
0 -416z m280 353 c87 -19 140 -80 140 -163 0 -80 -31 -131 -102 -167 -28 -14
-58 -19 -123 -19 l-85 0 0 180 0 180 60 0 c32 0 82 -5 110 -11z"/>
<path d="M420 1204 c-237 -35 -375 -155 -398 -347 -30 -246 97 -444 315 -493
104 -23 244 -15 336 19 l67 25 0 -24 c0 -22 4 -24 50 -24 l50 0 0 185 0 185
-115 0 -115 0 0 -25 c0 -24 2 -25 65 -25 l65 0 0 -105 c0 -98 -1 -106 -23
-119 -101 -67 -288 -71 -407 -11 -133 68 -206 248 -171 426 36 180 136 268
313 277 121 6 212 -21 274 -84 36 -35 51 -44 79 -44 19 0 35 5 35 11 0 6 -24
34 -53 63 -83 83 -236 129 -367 110z"/>
<path d="M1970 1203 c-187 -21 -340 -168 -373 -357 -35 -208 105 -428 308
-481 215 -55 441 34 539 214 142 262 -31 581 -336 621 -40 5 -80 9 -88 8 -8
-1 -31 -3 -50 -5z m215 -85 c64 -33 129 -103 163 -176 24 -50 27 -69 27 -162
0 -102 -1 -109 -38 -182 -59 -120 -150 -186 -271 -195 -215 -18 -365 153 -354
402 3 79 8 101 36 158 38 76 111 147 175 171 67 25 199 16 262 -16z"/>
<path d="M1170 774 l0 -415 53 3 52 3 3 413 2 412 -55 0 -55 0 0 -416z"/>
</g>
</svg>
