<?xml version="1.0" standalone="no"?>
<!DOCTYPE svg PUBLIC "-//W3C//DTD SVG 20010904//EN"
 "http://www.w3.org/TR/2001/REC-SVG-20010904/DTD/svg10.dtd">
<svg version="1.0" xmlns="http://www.w3.org/2000/svg"
 width="300.000000pt" height="300.000000pt" viewBox="0 0 300.000000 300.000000"
 preserveAspectRatio="xMidYMid meet">
<metadata>
Created by potrace 1.11, written by Peter Selinger 2001-2013
</metadata>
<g transform="translate(0.000000,300.000000) scale(0.100000,-0.100000)"
fill="#000000" stroke="none">
<path d="M1277 2923 c-3 -5 -51 -8 -106 -8 -85 1 -101 -1 -102 -14 0 -9 -1
-488 -2 -1066 -1 -577 -5 -1055 -9 -1061 -4 -6 -6 -21 -3 -33 2 -11 0 -21 -4
-21 -4 0 -8 -6 -8 -13 0 -19 -45 -107 -55 -107 -4 0 -8 -5 -8 -10 0 -23 -151
-130 -172 -122 -5 1 -8 -2 -8 -8 0 -5 -7 -7 -15 -4 -8 4 -15 2 -15 -3 0 -5 -6
-10 -12 -11 -7 -1 -31 -4 -53 -8 -100 -18 -302 -4 -382 27 -16 6 -29 10 -31 9
-7 -4 -70 26 -108 51 l-41 28 0 -152 c-1 -133 2 -154 17 -169 10 -9 21 -14 24
-11 3 4 6 0 6 -7 0 -7 2 -11 6 -8 3 3 28 -3 56 -14 28 -10 53 -17 56 -14 2 3
14 0 25 -6 25 -13 78 -18 225 -21 62 -2 116 1 118 5 3 5 12 4 20 -3 8 -7 14
-7 14 -1 0 5 12 10 28 10 15 0 41 3 57 7 17 4 35 8 40 9 6 1 16 5 23 9 6 5 12
6 12 3 0 -3 20 3 45 14 25 11 45 16 45 12 0 -4 4 -2 8 4 8 12 68 45 78 43 4 0
11 6 16 15 14 25 28 19 27 -11 -1 -16 -1 -39 0 -53 l1 -25 498 2 c433 2 557 5
557 13 0 1 16 4 35 6 37 4 75 11 75 14 0 1 8 3 17 5 26 5 90 25 118 37 63 27
95 44 98 51 2 4 12 7 23 7 10 0 19 4 19 8 0 4 15 16 33 26 17 11 61 49 96 85
84 87 91 96 91 109 0 7 5 12 11 12 5 0 7 5 4 10 -3 6 -1 10 4 10 6 0 11 7 11
15 0 8 5 15 10 15 6 0 9 3 8 8 -1 4 3 18 9 32 6 14 18 42 26 62 9 21 14 38 12
38 -3 0 0 11 5 25 38 101 27 333 -24 474 -21 58 -58 133 -73 149 -7 7 -13 17
-13 22 0 15 -148 158 -170 165 -11 3 -20 10 -20 14 0 7 -128 69 -174 85 -17 6
-15 21 2 21 15 1 70 42 112 85 44 44 126 160 114 160 -3 0 1 11 9 24 44 66 70
255 53 381 -5 42 -40 157 -53 178 -4 7 -8 14 -9 17 -2 16 -28 60 -35 60 -4 0
-10 8 -13 18 -10 31 -129 146 -140 135 -3 -4 -6 -2 -6 3 0 5 -21 21 -47 34
-27 14 -51 29 -54 33 -3 5 -8 8 -10 6 -2 -1 -29 6 -59 16 -62 21 -55 19 -130
35 -93 19 -164 22 -495 24 -176 0 -323 5 -326 10 -4 4 -9 4 -12 -1z m715 -287
c39 -5 114 -23 138 -33 8 -4 17 -7 20 -7 3 -1 15 -7 28 -14 12 -7 22 -10 22
-7 0 6 4 3 73 -57 48 -41 89 -108 103 -164 4 -16 8 -71 10 -122 3 -76 -1 -105
-20 -161 -22 -64 -65 -136 -93 -154 -7 -4 -19 -14 -27 -23 -18 -17 -133 -72
-167 -80 -13 -2 -40 -7 -59 -11 -53 -9 -641 -9 -647 0 -3 6 -6 522 -3 808 l0
36 293 -3 c160 -1 309 -5 329 -8z m165 -1134 c11 -6 23 -9 25 -6 9 8 138 -47
138 -59 0 -6 3 -7 7 -4 18 19 203 -164 203 -202 0 -6 4 -11 9 -11 7 0 18 -25
19 -43 1 -1 5 -15 11 -30 12 -32 20 -84 21 -142 0 -41 -6 -120 -9 -120 -1 0
-4 -15 -7 -34 -2 -19 -9 -39 -14 -46 -5 -7 -7 -15 -3 -18 3 -4 1 -7 -5 -7 -7
0 -11 -3 -10 -7 3 -10 -28 -68 -50 -95 -27 -33 -112 -119 -112 -113 0 3 -16
-6 -35 -21 -19 -14 -35 -23 -35 -20 0 4 -13 -2 -30 -14 -16 -12 -30 -19 -30
-15 0 3 -6 3 -12 -2 -7 -4 -15 -8 -18 -9 -5 0 -75 -16 -92 -20 -5 -1 -9 -3
-10 -4 -2 -1 -171 -3 -375 -4 l-373 -2 0 46 c-7 747 -4 1010 9 1012 8 2 182 3
386 2 250 -1 378 -5 392 -12z"/>
</g>
</svg>
